<svg xmlns="http://www.w3.org/2000/svg" width="24" height="24" fill="none" viewBox="0 0 24 24">
  <g clip-path="url(#a)">
    <path fill="#fff" d="M9 12A6 6 0 1 0 9 0a6 6 0 0 0 0 12ZM9 2a4 4 0 1 1 0 8 4 4 0 0 1 0-8Zm12 8V7h-2v3h-3v2h3v3h2v-3h3v-2h-3Zm-7.957 4H4.957A4.963 4.963 0 0 0 0 18.959V24h2v-5.043A2.96 2.96 0 0 1 4.957 16h8.086A2.96 2.96 0 0 1 16 18.958V24h2v-5.043A4.963 4.963 0 0 0 13.043 14Z"/>
  </g>
  <defs>
    <clipPath id="a">
      <path fill="#fff" d="M0 0h24v24H0z"/>
    </clipPath>
  </defs>
</svg>
