<svg xmlns="http://www.w3.org/2000/svg" width="317" height="70" fill="none" viewBox="0 0 317 70">
  <path fill="#6A6BFF" d="M84.275 48V20.56h11c2.773 0 5.147.493 7.12 1.48 1.973.987 3.493 2.493 4.56 4.52 1.067 2 1.6 4.573 1.6 7.72 0 3.12-.533 5.693-1.6 7.72-1.067 2.027-2.587 3.533-4.56 4.52-1.973.987-4.346 1.48-7.12 1.48h-11Zm5.2-4.44h5.8c1.28 0 2.413-.187 3.4-.56.987-.373 1.813-.92 2.48-1.64.667-.747 1.173-1.667 1.52-2.76.347-1.12.52-2.413.52-3.88v-.84c0-1.493-.173-2.787-.52-3.88-.347-1.12-.853-2.04-1.52-2.76a6.214 6.214 0 0 0-2.48-1.68c-.986-.373-2.12-.56-3.4-.56h-5.8v18.56ZM107.151 48l10.68-27.44h6.56L135.111 48h-5.64l-2.2-5.84h-12.56l-2.2 5.84h-5.36Zm9.2-10.24h9.24l-2.76-7.44-.4-1c-.134-.427-.28-.88-.44-1.36l-.48-1.52c-.16-.507-.307-.96-.44-1.36h-.2c-.16.533-.36 1.147-.6 1.84a59.296 59.296 0 0 1-1.16 3.4l-2.76 7.44Zm29.439 10.72c-1.52 0-2.973-.16-4.36-.48-1.387-.347-2.613-.867-3.68-1.56-1.067-.72-1.907-1.6-2.52-2.64-.613-1.067-.92-2.32-.92-3.76v-.48c.027-.16.04-.28.04-.36h5.24a2.4 2.4 0 0 1-.04.32v.36c0 .88.253 1.64.76 2.28.507.613 1.24 1.093 2.2 1.44.96.32 2.093.48 3.4.48.88 0 1.653-.053 2.32-.16.693-.107 1.28-.253 1.76-.44.507-.213.92-.453 1.24-.72a2.54 2.54 0 0 0 .68-.96c.16-.347.24-.72.24-1.12 0-.773-.24-1.413-.72-1.92-.48-.507-1.133-.933-1.96-1.28-.8-.347-1.72-.653-2.76-.92a167.07 167.07 0 0 0-3.16-.88 33.62 33.62 0 0 1-3.16-1.04 14.433 14.433 0 0 1-2.76-1.52 6.63 6.63 0 0 1-1.92-2.2c-.48-.907-.72-1.987-.72-3.24 0-1.28.267-2.4.8-3.36a6.769 6.769 0 0 1 2.32-2.36c1.013-.64 2.187-1.107 3.52-1.4 1.333-.32 2.787-.48 4.36-.48 1.467 0 2.84.16 4.12.48 1.307.293 2.453.773 3.44 1.44a6.888 6.888 0 0 1 2.32 2.48c.56.987.84 2.173.84 3.56v.48h-5.16v-.4c0-.773-.24-1.427-.72-1.96-.453-.533-1.107-.947-1.96-1.24-.827-.293-1.8-.44-2.92-.44-1.2 0-2.227.12-3.08.36-.853.213-1.507.547-1.96 1-.453.427-.68.96-.68 1.6 0 .667.24 1.227.72 1.68.48.453 1.12.84 1.92 1.16.827.32 1.747.613 2.76.88 1.04.267 2.093.56 3.16.88a29.15 29.15 0 0 1 3.16 1.04c1.04.4 1.96.907 2.76 1.52a6.457 6.457 0 0 1 1.96 2.2c.48.88.72 1.933.72 3.16 0 2.053-.507 3.707-1.52 4.96-.987 1.253-2.36 2.16-4.12 2.72-1.733.56-3.72.84-5.96.84Zm13.64-.48V20.56h5.2v11.16h12.8V20.56h5.2V48h-5.2V36.2h-12.8V48h-5.2Zm26.497 0V20.56h14.96c1.466 0 2.773.28 3.92.84 1.173.56 2.093 1.347 2.76 2.36.666 1.013 1 2.2 1 3.56 0 1.04-.2 1.987-.6 2.84a6.287 6.287 0 0 1-1.64 2.16 7.102 7.102 0 0 1-2.28 1.28v.16a6.67 6.67 0 0 1 2.72 1.24 6.062 6.062 0 0 1 1.88 2.28c.453.907.68 1.96.68 3.16 0 1.707-.387 3.12-1.16 4.24-.747 1.12-1.76 1.96-3.04 2.52-1.254.533-2.667.8-4.24.8h-14.96Zm5.2-4.44h9.08c1.093 0 1.986-.293 2.68-.88.72-.613 1.08-1.56 1.08-2.84 0-.747-.147-1.4-.44-1.96-.294-.56-.747-.987-1.36-1.28-.587-.32-1.347-.48-2.28-.48h-8.76v7.44Zm0-11.8h8.4c.8 0 1.466-.147 2-.44.56-.293.973-.693 1.24-1.2.293-.507.44-1.067.44-1.68 0-1.173-.32-2.04-.96-2.6-.614-.56-1.427-.84-2.44-.84h-8.68v6.76Zm32.842 16.72c-2.853 0-5.32-.507-7.4-1.52-2.08-1.04-3.68-2.613-4.8-4.72-1.093-2.107-1.64-4.76-1.64-7.96 0-3.227.547-5.88 1.64-7.96 1.12-2.107 2.72-3.667 4.8-4.68 2.08-1.04 4.547-1.56 7.4-1.56 2.88 0 5.347.52 7.4 1.56 2.08 1.013 3.667 2.573 4.76 4.68 1.12 2.08 1.68 4.733 1.68 7.96 0 3.2-.56 5.853-1.68 7.96-1.093 2.107-2.68 3.68-4.76 4.72-2.053 1.013-4.52 1.52-7.4 1.52Zm0-4.4c1.387 0 2.6-.2 3.64-.6 1.067-.4 1.96-.987 2.68-1.76.72-.8 1.267-1.773 1.64-2.92.373-1.173.56-2.52.56-4.04v-.88c0-1.547-.187-2.907-.56-4.08-.373-1.173-.92-2.147-1.64-2.92-.72-.8-1.613-1.4-2.68-1.8-1.04-.4-2.253-.6-3.64-.6s-2.613.2-3.68.6c-1.04.4-1.92 1-2.64 1.8-.72.773-1.267 1.747-1.64 2.92-.347 1.173-.52 2.533-.52 4.08v.88c0 1.52.173 2.867.52 4.04.373 1.147.92 2.12 1.64 2.92.72.773 1.6 1.36 2.64 1.76 1.067.4 2.293.6 3.68.6ZM236.432 48l10.68-27.44h6.56L264.392 48h-5.64l-2.2-5.84h-12.56l-2.2 5.84h-5.36Zm9.2-10.24h9.24l-2.76-7.44-.4-1c-.133-.427-.28-.88-.44-1.36l-.48-1.52c-.16-.507-.307-.96-.44-1.36h-.2c-.16.533-.36 1.147-.6 1.84a57.027 57.027 0 0 1-1.16 3.4l-2.76 7.44ZM264.831 48V20.56h14.44c2.027 0 3.707.347 5.04 1.04 1.334.693 2.334 1.68 3 2.96.667 1.28 1 2.787 1 4.52 0 1.787-.4 3.373-1.2 4.76-.8 1.36-1.973 2.387-3.52 3.08l5.68 11.08h-5.68l-5.04-10.2h-8.52V48h-5.2Zm5.2-14.56h8.84c1.334 0 2.36-.387 3.08-1.16.72-.773 1.08-1.84 1.08-3.2 0-.88-.16-1.613-.48-2.2a3.224 3.224 0 0 0-1.4-1.4c-.613-.32-1.373-.48-2.28-.48h-8.84v8.44ZM290.703 48V20.56h11c2.774 0 5.147.493 7.12 1.48 1.974.987 3.494 2.493 4.56 4.52 1.067 2 1.6 4.573 1.6 7.72 0 3.12-.533 5.693-1.6 7.72-1.066 2.027-2.586 3.533-4.56 4.52-1.973.987-4.346 1.48-7.12 1.48h-11Zm5.2-4.44h5.8c1.28 0 2.414-.187 3.4-.56.987-.373 1.814-.92 2.48-1.64.667-.747 1.174-1.667 1.52-2.76.347-1.12.52-2.413.52-3.88v-.84c0-1.493-.173-2.787-.52-3.88-.346-1.12-.853-2.04-1.52-2.76a6.205 6.205 0 0 0-2.48-1.68c-.986-.373-2.12-.56-3.4-.56h-5.8v18.56Z"/>
  <rect width="50.865" height="50.865" x=".226" y="25.658" fill="url(#a)" rx="10" transform="rotate(-30 .226 25.658)"/>
  <defs>
    <radialGradient id="a" cx="0" cy="0" r="1" gradientTransform="rotate(90 -12.716 38.374) scale(25.4325)" gradientUnits="userSpaceOnUse">
      <stop offset=".333" stop-color="#6A6BFF"/>
      <stop offset=".969" stop-color="#00C7A0"/>
    </radialGradient>
  </defs>
</svg>
