<svg xmlns="http://www.w3.org/2000/svg" width="35" height="35" fill="none" viewBox="0 0 35 35">
  <g clip-path="url(#a)">
    <path fill="#fff" d="m35 32.939-9.132-9.132a14.606 14.606 0 1 0-2.063 2.062l9.133 9.132L35 32.939Zm-20.417-6.688A11.667 11.667 0 1 1 26.25 14.584a11.68 11.68 0 0 1-11.667 11.667Z"/>
  </g>
  <defs>
    <clipPath id="a">
      <path fill="#fff" d="M0 10C0 4.477 4.477 0 10 0h15c5.523 0 10 4.477 10 10v15c0 5.523-4.477 10-10 10H10C4.477 35 0 30.523 0 25V10Z"/>
    </clipPath>
  </defs>
</svg>
