<svg xmlns="http://www.w3.org/2000/svg" width="24" height="24" fill="none" viewBox="0 0 24 24">
  <g clip-path="url(#a)">
    <path fill="#fff" d="M15 24H9v-3.513a8.999 8.999 0 0 1-2.849-1.646L3.107 20.6l-3-5.2 3.043-1.755a9.1 9.1 0 0 1 0-3.29L.107 8.6l3-5.2 3.044 1.759a9 9 0 0 1 2.85-1.646V0h6v3.513a8.999 8.999 0 0 1 2.848 1.646L20.893 3.4l3 5.2-3.043 1.755a9.1 9.1 0 0 1 0 3.29l3.043 1.755-3 5.2-3.044-1.758A8.999 8.999 0 0 1 15 20.487V24Zm-4-2h2v-3.027l.751-.194a6.985 6.985 0 0 0 3.243-1.879l.543-.553 2.623 1.515 1-1.732-2.62-1.513.206-.746a7.047 7.047 0 0 0 0-3.75l-.206-.746 2.62-1.513-1-1.732-2.623 1.519-.543-.549a6.984 6.984 0 0 0-3.243-1.875l-.75-.198V2h-2v3.027l-.752.194A6.984 6.984 0 0 0 7.006 7.1l-.543.553L3.84 6.134l-1 1.732 2.62 1.513-.206.746a7.048 7.048 0 0 0 0 3.75l.206.746-2.62 1.513 1 1.732 2.623-1.515.543.553a6.984 6.984 0 0 0 3.243 1.875l.751.194V22Zm1-6a4 4 0 1 1 0-8 4 4 0 0 1 0 8Zm0-6a2 2 0 1 0 0 4 2 2 0 0 0 0-4Z"/>
  </g>
  <defs>
    <clipPath id="a">
      <path fill="#fff" d="M0 0h24v24H0z"/>
    </clipPath>
  </defs>
</svg>
