<svg xmlns="http://www.w3.org/2000/svg" width="24" height="24" fill="none" viewBox="0 0 24 24">
  <g clip-path="url(#a)">
    <path fill="#fff" d="M24 9a3 3 0 1 0-4 2.816V16a6 6 0 1 1-12 0v-.08A7.006 7.006 0 0 0 14 9V3a3 3 0 0 0-3-3H8v2h3a1 1 0 0 1 1 1v6A5 5 0 1 1 2 9V3a1 1 0 0 1 1-1h3V0H3a3 3 0 0 0-3 3v6a7.006 7.006 0 0 0 6 6.92V16a8 8 0 0 0 16 0v-4.184A3 3 0 0 0 24 9Zm-3 1a1 1 0 1 1 0-2 1 1 0 0 1 0 2Z"/>
  </g>
  <defs>
    <clipPath id="a">
      <path fill="#fff" d="M0 0h24v24H0z"/>
    </clipPath>
  </defs>
</svg>
