<svg xmlns="http://www.w3.org/2000/svg" width="24" height="22" fill="none" viewBox="0 0 24 22">
  <path fill="#fff" d="M1.585 4.999 0 3.414 1.414 2 3 3.585a1.023 1.023 0 0 0 1.414 0L8 0l1.414 1.414-3.586 3.585a3 3 0 0 1-4.243 0Zm10.122-.121h12v-2h-12v2Zm-8 9a2.978 2.978 0 0 0 2.121-.879l3.586-3.585L8 8l-3.586 3.585a1.023 1.023 0 0 1-1.414 0L1.414 10 0 11.414l1.585 1.585a2.983 2.983 0 0 0 2.122.879Zm8-1h12v-2h-12v2Zm-8 9a2.978 2.978 0 0 0 2.121-.879l3.586-3.585L8 16l-3.586 3.585a1.023 1.023 0 0 1-1.414 0L1.414 18 0 19.414l1.585 1.585a2.983 2.983 0 0 0 2.122.879Zm8-1h12v-2h-12v2Z"/>
</svg>
